<?xml version="1.0" encoding="UTF-8"?>
<svg version="1.1" viewBox="0 0 1104 864" width="1280" height="1280" xmlns="http://www.w3.org/2000/svg">
<path transform="translate(0)" d="m0 0h1104v864h-1104z" fill="#FDFDFD"/>
<path transform="translate(486,54)" d="m0 0h18l21 3 18 5 18 8 19 13 16 15 12 14 10 13 8 12 7-1 22-7 16-3h28l16 4 15 7 14 9 13 12 8 9 10 15 5 11 4 15 5 36 11 5 17 6 21 10 14 10 10 9 7 7 8 10 12 24 6 17 4 19v27l-4 18-6 17-8 16-7 11-12 13-8 8-14 10-16 8-14 5-15 3-16 2-27 5-23 3-12 1h-26v2l-5 5-13 11-14 10-16 9h-2l1 2 101 1 25 1 21 3 17 5 17 9 13 11 10 12 7 14 4 13 1 6v14l-4 18-7 15-1 2h-2l-1 4-9 10-5 3-1 2-6 3h-2v2l-10 2-1 3-9 1h-19l-12-3v-2l-9-2-9-6-7-7-7-12-3-9-1-6v-14l3-12 6-10 9-9 12-6 7-2h15l6 4 5 7v9l-4 5-8 4-13 2-3 1-5 7v14l4 8 8 6 7 3 8 1 13-2 8-4 5-4 7-11 4-10 1-5v-12l-3-12-7-12-4-4-2-3-11-6-16-6-13-2-1-1-12-1-381-1-7-5-2-5v-8l3-5 4-3 9-1 28-1 54-1 1-2-5-2-14-8-18-13-13-10-4-2h-19l-21 14-15 8-24 8-12 2h-21l-19-3-20-6-19-10-13-10-14-14-7-10v-2l3-2h15l5-4h5v-3l-8-2-20-2-4 2-4-1-5-8-5-13v-3l-33-1-6-3-2-5-1-12 1-5 7-2 13-1h8l-14-7-14-10-3-2v-2l-4-2-6-8v-2l-3-1-7-12-6-17-2-11v-23l3-18 5-14 7-11 9-11 11-10 15-10 16-7 21-6 20-2 3-11 9-14 12-17 9-11 12-12 12-9 15-8 13-5 16-4 20-3 12-1 9-17 14-19 15-15 18-13 23-12 21-7 16-3z" fill="#DCECF8"/>
<path transform="translate(761,227)" d="m0 0 4 1 5 7 5 15-1 5-4 6-9 6h-2l-1 2-9 6-5 5-8 10-3 2-6 13-4 6 5-3 3-3 8-4 4-3 2 2 11-1h16l17 2 12 3 12 5 12 7 11 7 7 6 6 9 7 10 4 7 7 1 6-2 2-4 6-1v4h2l1-8-1-12-3-8-2-6-5-13v-4l4 1 7 11 5 11 6 17 4 19v27l-4 18-6 17-8 16-7 11-12 13-8 8-14 10-16 8-14 5-15 3-16 2-27 5-23 3-12 1h-26v2l-5 5-13 11-14 10-16 9h-2l1 2 101 1 25 1 21 3 17 5 17 9 13 11 10 12 7 14 4 13 1 6v14l-4 18-7 15-1 2h-2l-1 4-9 10-5 3-1 2-6 3h-2v2l-10 2-1 3-9 1h-19l-12-3v-2l-9-2-9-6-7-7-7-12-3-9-1-6v-14l3-12 6-10 9-9 12-6 7-2h15l6 4 5 7v9l-4 5-8 4-13 2-3 1-5 7v14l4 8 8 6 7 3 8 1 13-2 8-4 5-4 7-11 4-10 1-5v-12l-3-12-7-12-4-4-2-3-11-6-16-6-13-2-1-1-12-1-381-1-7-5-2-5v-8l3-5 4-3 9-1 28-1 54-1 1-2-5-2-14-8-18-13-13-10-4-2h-19l-21 14-15 8-24 8-12 2h-21l-19-3-20-6-19-10-13-10-14-14-7-10v-2l3-2h15l5-4h5v-3l-8-2-20-2-4 2-4-1-5-8-5-13v-3l-33-1-6-3-2-5-1-12 1-5 7-2 13-1h8l-14-7-14-10-3-2v-2l-4-2-7-10v-3l4-1 9 5h11l12-4 4-1 3 2 7 1 2 4-1 15-1 7v8l38 1h52l18-1h13l16-2 13-4 3-2 13-3 8-3 4 1 10 5 1 5 11 2 11 1h11l10 2 5 6v10l-3 8 5 3 9 1 11 9 2 1h19l12-1h6l14-5h2l-1-3-30-2-3-2-3-9 1-6 8-4 16-6 21-4 6-3 7-1h10l8-1v2l13-4 9-9 5-3 13-5 3 1v2h2v4l3-1v4l15-5 5 1-3 7-1 4 5-1 3 2 3-7 8-6 4-2 3 1-4 5 4-2v-2h13l4-3h2l1-4h2v-2l5-5 5-1 7-3 4-6 4-1v-2l6-3h6l2 3 2-16 4-14 6-11 9-11-1-2-3 2 2-5 1-5-3-5v-6l3-7-2-8 4-5 1-12 2-5-3 1-1-3 5-3 1-1 2-9 5-5 4-3 6-1 2-6 3-3 6-1v3l6-4z" fill="#BBD2E5"/>
<path transform="translate(450,610)" d="m0 0h96l54 1 22 2 20 4 16 5 18 8 14 9 11 9 7 7 4 5 1 3 3 3 8 16 3 4 3 11 1 1 2 13v18l-3 17-7 18-6 11-2 3h-2l-1 4h-2l-2 5-7 6-5 5-4 3h-2v2l-17 8-9 3h-3v2l-5 1h-21l-10-2-15-4-17-9-11-9-6-7v-3h-2l-6-11-4-11-1-6v-16l3-14 7-14 11-12 8-6 12-5 4-1h20l10 4 5 5 3 2 1 10-5 7-4 1h-10l-4-1h-11l-9 3v2l-4 1v2h-2l-1 4h-2l-3 9-1 2v15l5 12 8 10 10 7 12 5 4 1h19l15-4 11-6 10-9 7-9 7-14 4-14v-20l-4-15-6-12-7-9-10-12-5-2v-2h-2l-1-2-17-8-20-6-21-4-15-1-85-1h-274l-72-1-6-2-3-3v-14l2-4 4-1 24-1 45-1z" fill="#ADDFFA"/>
<path transform="translate(776,301)" d="m0 0 18 1 15 5 11 6 5 5 4 3v2l4 2 8 7 8 10v2h2l5 9 2 8 2 15v14l-4 24-5 14-5 8-3 5h-2l-2 6-4 4-4 6-4 5-5 5h-2l-1 3-4 1-1 3-19 11-13 5-18 5-30 4-24 2h-60l-342 1-12 1-1 2h-5l-5-4-1-3v-11l2-5 11-4h13l14-1h23l13 1h53l6-1h55l18-1h28l30 1h16l25 2h31l45 1 13 2 2 1h32l21-2 13-2 13-5 19-3 16-6 3-3 13-4 10-7 6-8 2-3v-5l-5 5h-2l-2 5-4 4-7 4-3-1 4-2 1-3 7-6 1-2h2l2-5 8-15 3-14v-14l-4-15 1 6-3 3-9-6v-2l-5-3-2-3-8 1-2 4 3 1-7 2-4-2-3-3-4-2-5-7 1-5 1-4 8-5 17-1 4-2v-2l-4-2-1-2 5 1-3-5-7-6-6-4-12-4-12-1h-10l-11 2-13 5-9 6-7 8-4 7-2 12 2 12 4 9 4 10 5 5 7 3h14l5-1h14l3 4 1 4-3 6-5 1-4 3-5 1v2l-11 3-17-1-1 2-9-4-10-8-12-16-5-16v-13l3-5 3-4 2-8 6-12 7-10h2l1-3 8-7 8-6 25-10z" fill="#ADDFFA"/>
<path transform="translate(413,548)" d="m0 0h68l6 1 61 1 36 1h50v-2l5-1h104l25 1 21 3 17 5 17 9 13 11 10 12 7 14 4 13 1 6v14l-4 18-7 15-1 2h-2l-1 4-9 10-5 3-1 2-6 3h-2v2l-10 2-1 3-9 1h-19l-12-3v-2l-9-2-9-6-7-7-7-12-3-9-1-6v-14l3-12 6-10 9-9 12-6 7-2h15l6 4 5 7v9l-4 5-8 4-13 2-3 1-5 7v14l4 8 8 6 7 3 8 1 13-2 8-4 5-4 7-11 4-10 1-5v-12l-3-12-7-12-4-4-2-3-11-6-16-6-13-2-1-1-12-1-381-1-7-5-2-5v-8l3-5 4-3 9-1z" fill="#ADDFFA"/>
<path transform="translate(510,507)" d="m0 0h14l23 1 7 1 85-1h49l3 2-5 5-13 11-14 10-16 9h-2l1 2 10 1v1h-18v2l-10 1h-52l-30-1-55-1-11-1h-24v-1l15-1 1-2-5-2-14-8-18-13-13-10-6-3 3-1 5 1 9-1z" fill="#BBD2E5"/>
<path transform="translate(139,385)" d="m0 0 5 2 6 3h11l12-4 4-1 3 2 7 1 2 4-1 15-1 7v8l38 1h52l18-1h13l16-2 13-4 3-2 13-3 8-3 4 1 10 5 1 5 11 2 11 1h11l10 2 5 6v10l-3 3-1-2 1-9-2 1-3 6-11 4h-234l-16-1 1 4 4 2 94 1v1h-95l-6-3-2-5-1-12 1-5 7-2 13-1h8l-14-7-14-10-3-2v-2l-4-2-7-10v-3z" fill="#ADDFFA"/>
<path transform="translate(873,302)" d="m0 0 4 1 7 11 5 11 6 17 4 19v27l-4 18-6 17-8 16-7 11-12 13-8 8-14 10-16 8-14 5-15 3h-6v-1h5l2-4 5-2v-2l11-6 11-7 7-6 14-20 7-14 6-16 3-12v-15l-1-16-3-19-3-7-2-6h-2l-8-10v-2l-4-2-8-7-9-9 5 2 11 7 7 6 6 9 7 10 4 7 7 1 6-2 2-4 6-1v4h2l1-8-1-12-3-8-2-6-5-13z" fill="#BBD2E5"/>
<path transform="translate(859,390)" d="m0 0 2 2v15l-4 16-8 19-8 13-8 11-4 5-13 10-12 7h-3v2l-6 4-1 2-35 7-30 4-12 1-29 1h-55l-79 1-7-1-33-1-88 1-9 1-6-2h-12l-9 1-5-1-43 1-41-1-10-2 5-4 12-1 376-1h26l32-3 22-3 22-6 16-8 12-7 6-6h2l2-4 3-1 2-4 4-5 4-6h2l2-6h2l2-5 3-4 7-18z" fill="#7DC0ED"/>
<path transform="translate(139,385)" d="m0 0 5 2 6 3h11l12-4 4-1 3 2 7 1 2 4-1 15-1 7v8l38 1h52l18-1h13l16-2 13-4 3-2 13-3 8-3 4 1 10 5 1 5 11 2 11 1h11l5 1-1 2-6 1-20 1-4 1-20 1h-16l-27-2h-19l-27 1-22 1-14-1h-10l-25 3-3 1-25 1-9-1-2 1h-13l-1-3 1-5 7-2 13-1h8l-14-7-14-10-3-2v-2l-4-2-7-10v-3z" fill="#BBD2E5"/>
<path transform="translate(598,568)" d="m0 0h70l93 1 12 1 5 2 12 2 12 5 9 6 5 4 4 7 1 3-5-2-4-4-11-6-16-6-13-2-1-1-12-1-233-1-147-1-4-3v-2l19-1z" fill="#7DC0ED"/>
<path transform="translate(168,632)" d="m0 0h348l79 1 18 1 24 5 15 5 9 4 12 7 12 9 3 7-1 3-6-4-5-6-5-2v-2h-2l-1-2-17-8-20-6-21-4-15-1-85-1h-274l-72-1-5-3v-1z" fill="#7DC0ED"/>
<path transform="translate(614,425)" d="m0 0 8 1 9 4 2 2 1 5-3 10-4 1v-3l1-6-10 2-9 1h-136l1 5 1 1 34 1v1h-38l-4-6-1-6 5-3 11-4 9-1 50-2h67z" fill="#ADE0FB"/>
<path transform="translate(419,432)" d="m0 0h2l1 5-3 8-5 4-8 1h-152l-94-1-5-3v-4h250l11-4z" fill="#7DC0ED"/>
<path transform="translate(709,660)" d="m0 0h3l1 3 3 3 8 16 3 4 3 11 1 1 2 13v18l-3 17-7 18-6 11-2 3h-2l-1 4h-2l-2 5-7 6-5 5-4 3h-2v2l-17 8-9 3h-3v2l-5 1h-21l-10-2-15-4-17-9-11-9-6-7v-3h-2l-3-5 1-3 4 5v2l4 2 1 3 6 2v2l4 2 9 6 12 6 8 3 14 2h17l11-2 16-6 12-9h2v-2l8-7 8-10 4-7h2l2-4 2-3 2-7 4-11 3-14 1-21v-5h-2l-3-13-7-16-6-10z" fill="#82C2EC"/>
<path transform="translate(625,438)" d="m0 0 4 1-1 6-5 4-22 1h-91l-35-1-3-3 1-4 16-1h122l13-2z" fill="#7DC0ED"/>
<path transform="translate(811,349)" d="m0 0h4l8 10 7 13 2 10-3 3-9-6v-2l-5-3-2-3-8 1-2 4 3 1-7 2-4-2-3-3-4-2-5-7 1-5 1-4 8-5 17-1z" fill="#DDEDF9"/>
<path transform="translate(764,322)" d="m0 0h12l13 2 11 4 9 7 5 5v3l-5-1-5-4-12-5-9-3h-18l-12 3-13 7-3 3h-2v2l-5 5-6 9-3 8-1 8h-1l-2-13 2-11 7-11 7-7 16-8 7-2z" fill="#7DC0ED"/>
<path transform="translate(855,631)" d="m0 0 2 1v8l-3 14-7 15-1 2h-2l-1 4-9 10-5 3-1 2-6 3h-2v2l-10 2-1 3-9 1h-19l-12-3v-2l-9-2-5-3v-2l4-1 4 2 7 2 14 2 16-1 8-2 14-7 8-6 8-9 4-5h2l-1-3 3-3 4-11 2-12z" fill="#81C2ED"/>
<path transform="translate(478,608)" d="m0 0h22l81 1 24 1 24 3v1l-15-1-14-1-54-1h-96l-220 1-45 1-24 1-4 1-1 3-1 13h-1v-14l2-5 18-1 46-1z" fill="#DDEDF9"/>
<path transform="translate(640,694)" d="m0 0 6 4 1 10-5 7-4 1h-10l-4-1h-11l-9 3v2l-4 1v2h-2l-1 4h-2l-3 9-1 2v15l3 6v4l-4-2-2-2v-4h-2l-1-19 3-10 6-9 11-6 11-2h23z" fill="#7FC1ED"/>
<path transform="translate(200,473)" d="m0 0 3 2 4-1 7-1 18 2 7 3v3l-4 1-5 2-4 2h-13l-3 1 2 5-5-5-7-12z" fill="#DDEDF9"/>
<path transform="translate(775,412)" d="m0 0 1 3-4 7-6 5-11 4h-17l-10-5 4-2h17l11-2v-2l8-4 5-2z" fill="#7DC0ED"/>
<path transform="translate(793,612)" d="m0 0 2 2-1 9-4 4-6 3-13 2-7 4-3 7-2 3-3-6 1-5 3-5 3-3 20-4 7-3z" fill="#7DC0ED"/>
<path transform="translate(763,331)" d="m0 0h18l11 3 8 4v1l-14-1h-19l-11 2-3-2 1-4z" fill="#DDEDF9"/>
<path transform="translate(655,537)" d="m0 0 2 1-9 6-2 1 1 1 106 1 15 1v1h-25l-101-1-1-3z" fill="#DDEDF9"/>
<path transform="translate(450,536)" d="m0 0 6 2 12 7-1 3-54 1-28 1-9 1-6 4 1-4 3-2 6-1 19-1 63-1-4-4-8-5z" fill="#DDEDF9"/>
<path transform="translate(729,355)" d="m0 0 3 1-1 6-5 15-2-2v-13z" fill="#DDEDF9"/>
<path transform="translate(168,417)" d="m0 0 10 3 2 2-1 1h-12l-16 2 4-3 13-2z" fill="#DDEDF9"/>
<path transform="translate(161,613)" d="m0 0h24v1l-11 1-2 1-16 1 1-3z" fill="#BBD2E5"/>
<path transform="translate(490,483)" d="m0 0h8l2 2-2 2h-11l-2-2z" fill="#BBD2E5"/>
<path transform="translate(376,550)" d="m0 0 3 1v5l-1 1h-8l2-4z" fill="#BBD2E5"/>
<path transform="translate(752,223)" d="m0 0h6l-3 4-6 3-2-1 3-5z" fill="#BBD2E5"/>
</svg>
